HIERARCHY
ROOT newVegas:Hips
{
	OFFSET 0.000000 96.479958 0.000000
	CHANNELS 6 Xposition Yposition Zposition Xrotation Yrotation Zrotation
	JOINT newVegas:Pelvis
	{
		OFFSET 0.000000 0.000000 0.000000
		CHANNELS 3 Xrotation Yrotation Zrotation
		JOINT newVegas:LeftUpLeg
		{
			OFFSET 18.735201 -5.666702 -4.541200
			CHANNELS 3 Xrotation Yrotation Zrotation
			JOINT newVegas:LeftLeg
			{
				OFFSET -0.021200 -31.938179 0.493100
				CHANNELS 3 Xrotation Yrotation Zrotation
				JOINT newVegas:LeftFoot
				{
					OFFSET 0.021200 -31.938179 -4.336299
					CHANNELS 3 Xrotation Yrotation Zrotation
					JOINT newVegas:LeftToeBase
					{
						OFFSET 0.943001 -26.722000 15.023500
						CHANNELS 3 Xrotation Yrotation Zrotation
						End Site
						{
							OFFSET 0.000000 30.670183 0.000000
						}
					}
				}
				JOINT newVegas:Left_PantLeg
				{
					OFFSET 0.663870 -9.044666 -1.108900
					CHANNELS 3 Xrotation Yrotation Zrotation
					End Site
					{
						OFFSET 1.415995 20.635357 0.000000
					}
				}
			}
		}
		JOINT newVegas:RightUpLeg
		{
			OFFSET -18.735201 -5.666702 -4.541200
			CHANNELS 3 Xrotation Yrotation Zrotation
			JOINT newVegas:RightLeg
			{
				OFFSET 0.018946 -31.938133 0.493100
				CHANNELS 3 Xrotation Yrotation Zrotation
				JOINT newVegas:RightFoot
				{
					OFFSET -0.018946 -31.938126 -4.336299
					CHANNELS 3 Xrotation Yrotation Zrotation
					JOINT newVegas:RightToeBase
					{
						OFFSET -0.943001 -26.722004 15.023500
						CHANNELS 3 Xrotation Yrotation Zrotation
						End Site
						{
							OFFSET 0.000000 30.670187 0.000000
						}
					}
				}
				JOINT newVegas:Right_PantLeg
				{
					OFFSET -0.661674 -9.044716 -1.108900
					CHANNELS 3 Xrotation Yrotation Zrotation
					End Site
					{
						OFFSET -1.415958 20.635269 0.000000
					}
				}
			}
		}
	}
	JOINT newVegas:Spine
	{
		OFFSET 0.000000 10.199997 -0.299500
		CHANNELS 3 Xrotation Yrotation Zrotation
		JOINT newVegas:Spine1
		{
			OFFSET 0.000000 11.900002 -1.516600
			CHANNELS 3 Xrotation Yrotation Zrotation
			JOINT newVegas:Spine2
			{
				OFFSET 0.000000 13.600006 -2.842500
				CHANNELS 3 Xrotation Yrotation Zrotation
				JOINT newVegas:Neck
				{
					OFFSET 0.000000 9.624100 -2.890100
					CHANNELS 3 Xrotation Yrotation Zrotation
					JOINT newVegas:Head
					{
						OFFSET 0.000000 14.068802 -1.351900
						CHANNELS 3 Xrotation Yrotation Zrotation
						JOINT newVegas:Hair_Back
						{
							OFFSET 0.000000 3.231903 -17.524799
							CHANNELS 3 Xrotation Yrotation Zrotation
							End Site
							{
								OFFSET 0.000000 19.849884 0.000000
							}
						}
						JOINT newVegas:Hair_Front
						{
							OFFSET 0.000000 31.260406 4.573800
							CHANNELS 3 Xrotation Yrotation Zrotation
							JOINT newVegas:Hair_Front1
							{
								OFFSET 0.000000 2.284103 11.993300
								CHANNELS 3 Xrotation Yrotation Zrotation
								JOINT newVegas:Hair_Front2
								{
									OFFSET 0.000000 2.284103 11.993300
									CHANNELS 3 Xrotation Yrotation Zrotation
									End Site
									{
										OFFSET 0.000000 12.208862 0.000000
									}
								}
							}
						}
						JOINT newVegas:Jowel
						{
							OFFSET 0.000000 -7.458206 6.864100
							CHANNELS 3 Xrotation Yrotation Zrotation
							End Site
							{
								OFFSET 0.000000 19.849884 0.000000
							}
						}
					}
				}
				JOINT newVegas:LeftShoulder
				{
					OFFSET 15.263000 10.923401 -0.547700
					CHANNELS 3 Xrotation Yrotation Zrotation
					JOINT newVegas:LeftArm
					{
						OFFSET 25.438599 -2.830597 -13.032500
						CHANNELS 3 Xrotation Yrotation Zrotation
						JOINT newVegas:LeftForeArm
						{
							OFFSET 29.960503 0.000000 0.000000
							CHANNELS 3 Xrotation Yrotation Zrotation
							JOINT newVegas:LeftHand
							{
								OFFSET 27.849251 0.000000 0.000000
								CHANNELS 3 Xrotation Yrotation Zrotation
								JOINT newVegas:LeftHandThumb1
								{
									OFFSET 4.487587 -3.305161 6.305391
									CHANNELS 3 Xrotation Yrotation Zrotation
									JOINT newVegas:LeftHandThumb2
									{
										OFFSET 5.480453 -3.164139 3.164143
										CHANNELS 3 Xrotation Yrotation Zrotation
										JOINT newVegas:LeftHandThumb3
										{
											OFFSET 5.159721 -2.978973 2.978967
											CHANNELS 3 Xrotation Yrotation Zrotation
											End Site
											{
												OFFSET 2.494507 5.926697 1.738678
											}
										}
									}
								}
								JOINT newVegas:LeftHandIndex1
								{
									OFFSET 18.578728 -0.527832 5.208049
									CHANNELS 3 Xrotation Yrotation Zrotation
									JOINT newVegas:LeftHandIndex2
									{
										OFFSET 3.192009 0.000000 0.000000
										CHANNELS 3 Xrotation Yrotation Zrotation
										JOINT newVegas:LeftHandIndex3
										{
											OFFSET 3.835129 0.000000 0.000000
											CHANNELS 3 Xrotation Yrotation Zrotation
											End Site
											{
												OFFSET -0.034599 3.816971 0.371180
											}
										}
									}
								}
								JOINT newVegas:LeftHandMiddle1
								{
									OFFSET 18.476105 0.000000 0.000000
									CHANNELS 3 Xrotation Yrotation Zrotation
									JOINT newVegas:LeftHandMiddle2
									{
										OFFSET 3.324875 0.000000 0.000000
										CHANNELS 3 Xrotation Yrotation Zrotation
										JOINT newVegas:LeftHandMiddle3
										{
											OFFSET 4.596550 0.000000 0.000000
											CHANNELS 3 Xrotation Yrotation Zrotation
											End Site
											{
												OFFSET 0.057701 4.578827 0.399218
											}
										}
									}
								}
								JOINT newVegas:LeftHandRing1
								{
									OFFSET 17.732719 0.121887 -4.201567
									CHANNELS 3 Xrotation Yrotation Zrotation
									JOINT newVegas:LeftHandRing2
									{
										OFFSET 2.733170 0.000000 0.000000
										CHANNELS 3 Xrotation Yrotation Zrotation
										JOINT newVegas:LeftHandRing3
										{
											OFFSET 3.178268 0.000000 0.000000
											CHANNELS 3 Xrotation Yrotation Zrotation
											End Site
											{
												OFFSET 0.119102 3.170624 0.185394
											}
										}
									}
								}
								JOINT newVegas:LeftHandPinky1
								{
									OFFSET 15.989624 -0.606689 -7.535461
									CHANNELS 3 Xrotation Yrotation Zrotation
									JOINT newVegas:LeftHandPinky2
									{
										OFFSET 2.538986 0.000000 0.000000
										CHANNELS 3 Xrotation Yrotation Zrotation
										JOINT newVegas:LeftHandPinky3
										{
											OFFSET 2.593102 0.000000 0.000000
											CHANNELS 3 Xrotation Yrotation Zrotation
											End Site
											{
												OFFSET -0.150902 2.584198 0.152708
											}
										}
									}
								}
							}
							JOINT newVegas:Left_Sleeve
							{
								OFFSET 0.267448 -0.649796 0.577675
								CHANNELS 3 Xrotation Yrotation Zrotation
								End Site
								{
									OFFSET 0.000000 15.991241 0.000000
								}
							}
							JOINT newVegas:Left_CapeC
							{
								OFFSET 15.715958 -8.608795 -6.935905
								CHANNELS 3 Xrotation Yrotation Zrotation
								JOINT newVegas:Left_CapeC1
								{
									OFFSET 0.000000 -8.688499 0.000000
									CHANNELS 3 Xrotation Yrotation Zrotation
									End Site
									{
										OFFSET 0.000000 8.688499 0.000000
									}
								}
							}
						}
						JOINT newVegas:Left_CapeB
						{
							OFFSET 26.118385 -8.608795 -7.079235
							CHANNELS 3 Xrotation Yrotation Zrotation
							JOINT newVegas:Left_CapeB1
							{
								OFFSET 0.000000 -8.688499 0.000000
								CHANNELS 3 Xrotation Yrotation Zrotation
								End Site
								{
									OFFSET 0.000000 8.688499 0.000000
								}
							}
						}
						JOINT newVegas:Left_CapeA
						{
							OFFSET 5.115639 -8.608795 -10.395809
							CHANNELS 3 Xrotation Yrotation Zrotation
							JOINT newVegas:Left_CapeA1
							{
								OFFSET 0.000000 -8.688499 0.000000
								CHANNELS 3 Xrotation Yrotation Zrotation
								End Site
								{
									OFFSET 0.000000 8.688499 0.000000
								}
							}
						}
					}
				}
				JOINT newVegas:RightShoulder
				{
					OFFSET -15.263000 10.923401 -0.547700
					CHANNELS 3 Xrotation Yrotation Zrotation
					JOINT newVegas:RightArm
					{
						OFFSET -25.438599 -2.830597 -13.032500
						CHANNELS 3 Xrotation Yrotation Zrotation
						JOINT newVegas:RightForeArm
						{
							OFFSET -29.960503 0.000000 0.000000
							CHANNELS 3 Xrotation Yrotation Zrotation
							JOINT newVegas:RightHand
							{
								OFFSET -27.849251 0.000000 0.000000
								CHANNELS 3 Xrotation Yrotation Zrotation
								JOINT newVegas:RightHandThumb1
								{
									OFFSET -4.487587 -3.305161 6.305391
									CHANNELS 3 Xrotation Yrotation Zrotation
									JOINT newVegas:RightHandThumb2
									{
										OFFSET -5.480453 -3.164139 3.164143
										CHANNELS 3 Xrotation Yrotation Zrotation
										JOINT newVegas:RightHandThumb3
										{
											OFFSET -5.159721 -2.978973 2.978967
											CHANNELS 3 Xrotation Yrotation Zrotation
											End Site
											{
												OFFSET -2.494507 5.926697 1.738678
											}
										}
									}
								}
								JOINT newVegas:RightHandIndex1
								{
									OFFSET -18.578728 -0.527832 5.208049
									CHANNELS 3 Xrotation Yrotation Zrotation
									JOINT newVegas:RightHandIndex2
									{
										OFFSET -3.192009 0.000000 0.000000
										CHANNELS 3 Xrotation Yrotation Zrotation
										JOINT newVegas:RightHandIndex3
										{
											OFFSET -3.835129 0.000000 0.000000
											CHANNELS 3 Xrotation Yrotation Zrotation
											End Site
											{
												OFFSET 0.034599 3.816971 0.371180
											}
										}
									}
								}
								JOINT newVegas:RightHandMiddle1
								{
									OFFSET -18.476105 0.000000 0.000000
									CHANNELS 3 Xrotation Yrotation Zrotation
									JOINT newVegas:RightHandMiddle2
									{
										OFFSET -3.324875 0.000000 0.000000
										CHANNELS 3 Xrotation Yrotation Zrotation
										JOINT newVegas:RightHandMiddle3
										{
											OFFSET -4.596550 0.000000 0.000000
											CHANNELS 3 Xrotation Yrotation Zrotation
											End Site
											{
												OFFSET -0.057701 4.578827 0.399218
											}
										}
									}
								}
								JOINT newVegas:RightHandRing1
								{
									OFFSET -17.732719 0.121887 -4.201567
									CHANNELS 3 Xrotation Yrotation Zrotation
									JOINT newVegas:RightHandRing2
									{
										OFFSET -2.733170 0.000000 0.000000
										CHANNELS 3 Xrotation Yrotation Zrotation
										JOINT newVegas:RightHandRing3
										{
											OFFSET -3.178268 0.000000 0.000000
											CHANNELS 3 Xrotation Yrotation Zrotation
											End Site
											{
												OFFSET -0.119102 3.170624 0.185394
											}
										}
									}
								}
								JOINT newVegas:RightHandPinky1
								{
									OFFSET -15.989624 -0.606689 -7.535461
									CHANNELS 3 Xrotation Yrotation Zrotation
									JOINT newVegas:RightHandPinky2
									{
										OFFSET -2.538986 0.000000 0.000000
										CHANNELS 3 Xrotation Yrotation Zrotation
										JOINT newVegas:RightHandPinky3
										{
											OFFSET -2.593102 0.000000 0.000000
											CHANNELS 3 Xrotation Yrotation Zrotation
											End Site
											{
												OFFSET 0.150902 2.584198 0.152708
											}
										}
									}
								}
							}
							JOINT newVegas:Right_CapeC
							{
								OFFSET -15.715958 -8.608795 -6.935905
								CHANNELS 3 Xrotation Yrotation Zrotation
								JOINT newVegas:Right_CapeC1
								{
									OFFSET 0.000000 -8.688499 0.000000
									CHANNELS 3 Xrotation Yrotation Zrotation
									End Site
									{
										OFFSET 0.000000 8.688499 0.000000
									}
								}
							}
							JOINT newVegas:Right_Sleeve
							{
								OFFSET -0.267448 -0.649994 0.577675
								CHANNELS 3 Xrotation Yrotation Zrotation
								End Site
								{
									OFFSET 0.000000 15.991302 0.000000
								}
							}
						}
						JOINT newVegas:Right_CapeA
						{
							OFFSET -5.115540 -8.608795 -10.395824
							CHANNELS 3 Xrotation Yrotation Zrotation
							JOINT newVegas:Right_CapeA1
							{
								OFFSET 0.000000 -8.688499 0.000000
								CHANNELS 3 Xrotation Yrotation Zrotation
								End Site
								{
									OFFSET 0.000000 8.688499 0.000000
								}
							}
						}
						JOINT newVegas:Right_CapeB
						{
							OFFSET -26.118187 -8.608795 -7.079266
							CHANNELS 3 Xrotation Yrotation Zrotation
							JOINT newVegas:Right_CapeB1
							{
								OFFSET 0.000000 -8.688499 0.000000
								CHANNELS 3 Xrotation Yrotation Zrotation
								End Site
								{
									OFFSET 0.000000 8.688499 0.000000
								}
							}
						}
					}
				}
				JOINT newVegas:Left_Collar
				{
					OFFSET 18.625099 8.655502 8.828100
					CHANNELS 3 Xrotation Yrotation Zrotation
					JOINT newVegas:Left_Collar1
					{
						OFFSET 14.783401 10.540405 -1.259500
						CHANNELS 3 Xrotation Yrotation Zrotation
						End Site
						{
							OFFSET 0.000000 18.199875 0.000000
						}
					}
				}
				JOINT newVegas:Collar_Back
				{
					OFFSET 0.000000 15.630707 -20.132601
					CHANNELS 3 Xrotation Yrotation Zrotation
					End Site
					{
						OFFSET 0.000000 22.523010 0.000000
					}
				}
				JOINT newVegas:Left_Peck
				{
					OFFSET 17.239599 -5.132599 25.482599
					CHANNELS 3 Xrotation Yrotation Zrotation
					End Site
					{
						OFFSET 0.000000 22.523010 0.000000
					}
				}
				JOINT newVegas:Right_Peck
				{
					OFFSET -17.239599 -5.132202 25.482599
					CHANNELS 3 Xrotation Yrotation Zrotation
					End Site
					{
						OFFSET 0.000000 22.523010 0.000000
					}
				}
				JOINT newVegas:Right_Collar
				{
					OFFSET -18.625099 8.655792 8.828100
					CHANNELS 3 Xrotation Yrotation Zrotation
					JOINT newVegas:Right_Collar1
					{
						OFFSET -14.783401 10.539993 -1.259500
						CHANNELS 3 Xrotation Yrotation Zrotation
						End Site
						{
							OFFSET 0.000000 18.199631 0.000000
						}
					}
				}
			}
		}
		JOINT newVegas:Belly
		{
			OFFSET 0.000000 -6.540398 9.014299
			CHANNELS 3 Xrotation Yrotation Zrotation
			End Site
			{
				OFFSET 0.000000 11.566666 0.000000
			}
		}
	}
	JOINT newVegas:ElvisFacialAnim_Joint
	{
		OFFSET 1.000000 -95.330101 -8.825800
		CHANNELS 3 Xrotation Yrotation Zrotation
		End Site
		{
			OFFSET 0.000000 35.315800 0.000000
		}
	}
}
MOTION
Frames: 4
Frame Time: 0.016667
-2.768894 128.347748 309.810059 6.108276 -35.593284 19.935290 -0.000000 0.000002 -0.000000 -106.399430 -15.649799 8.577562 115.238296 23.393618 7.469589 -11.476621 -0.569049 9.604059 0.000001 0.000000 -0.000002 -0.000000 -0.000000 0.000003 -110.590803 -28.696316 -5.215050 103.502603 12.873578 3.328325 27.967024 6.332823 10.013851 -0.000000 0.000000 -0.000002 -0.000001 -0.000001 -0.000000 36.540173 3.607902 -27.922408 10.113559 4.487076 -5.651608 17.344347 -0.255001 0.868255 -2.749942 3.412472 -2.935779 -2.749921 3.412473 -2.935779 -0.000001 -0.000000 -0.000000 -2.749874 3.412468 -2.935781 -2.750094 3.412468 -2.935768 -0.000000 -0.000000 -0.000000 -0.000001 -0.000000 -0.000000 3.460652 -8.918315 -0.904753 -83.626814 1.219634 -12.071361 -339.578345 -61.813123 -343.756481 -7.849525 9.865838 25.085418 17.551585 -5.699207 -12.932258 10.850551 26.127724 8.644744 0.000000 -0.000003 -0.000005 13.980905 1.201580 -55.004367 0.370803 1.161717 -65.441880 0.000003 -0.000001 -0.000001 7.504735 1.174491 -63.778510 1.807869 1.475637 -64.568005 0.000000 0.000000 -0.000000 8.574310 2.179114 -75.148986 -0.207613 1.009263 -57.855056 -0.000002 -0.000000 -0.000002 10.030111 13.637120 -84.750244 0.877122 0.062300 -64.595476 -0.000000 -0.000002 0.000001 -0.000000 0.000000 0.000000 -0.000000 0.000000 0.000000 -0.000001 0.000001 0.000000 0.000001 0.000000 0.000002 0.000001 -0.000001 0.000000 0.000001 0.000000 0.000002 0.000001 -0.000000 0.000001 7.814333 26.927348 -8.074467 -63.242702 -8.464375 33.803620 -75.905470 19.956797 56.360245 103.847794 -11.344592 -4.184671 -0.360669 0.058145 -0.543042 4.001291 -8.596759 -1.236488 -0.000001 -0.000000 -0.000001 1.178586 -0.282699 1.711511 -0.146677 -0.226834 7.547514 -0.000002 0.000002 0.000003 3.352588 -1.937790 -0.812895 0.311546 -0.271376 28.365057 0.000002 0.000000 0.000003 2.261837 -7.957681 2.165567 0.288150 -0.079123 26.161657 0.000003 0.000001 0.000001 1.961593 -6.393503 2.504507 0.531429 0.722191 34.300592 0.000001 0.000003 -0.000003 0.000006 0.000003 0.000004 0.000003 0.000003 0.000003 0.000006 0.000003 0.000003 0.000000 0.000000 0.000002 -0.000000 0.000000 0.000001 0.000000 0.000000 0.000002 0.000000 0.000000 0.000002 -0.000001 0.000000 0.000000 -0.000001 0.000000 0.000000 -0.000001 0.000000 0.000000 -0.000001 0.000000 0.000000 -0.000001 0.000000 0.000000 -0.000001 0.000000 0.000000 -0.000001 0.000000 0.000000 0.000001 0.000001 0.000001 -0.000000 0.000002 -0.000000 
-2.598764 127.975075 314.692535 7.632029 -35.414504 20.337687 0.000000 -0.000000 0.000002 -103.696431 -16.111771 10.734996 112.586878 20.524182 7.189567 -12.512422 -0.091894 6.988666 -0.000000 0.000001 -0.000001 -0.000000 -0.000000 -0.000001 -108.061304 -27.666948 -4.198252 95.577323 15.342615 6.178586 21.297862 5.550861 11.592868 0.000001 -0.000000 0.000001 0.000001 0.000002 -0.000003 36.256912 3.979755 -27.382189 10.417187 4.343064 -5.637413 17.590058 -0.300815 0.846438 -2.698265 3.307865 -2.943719 -2.698282 3.307866 -2.943719 -0.000001 0.000000 -0.000000 -2.698272 3.307869 -2.943718 -2.698146 3.307857 -2.943726 0.000004 0.000000 0.000000 -0.000001 0.000000 -0.000000 3.732774 -8.938844 -0.897974 -82.664065 -0.098876 -10.383339 -346.709828 -62.155104 -350.113912 -8.715357 8.791311 25.759015 17.551583 -5.699203 -12.932256 10.850555 26.127726 8.644747 -0.000000 -0.000003 -0.000001 13.980903 1.201582 -55.004367 0.370804 1.161718 -65.441880 -0.000000 -0.000001 -0.000002 7.504733 1.174492 -63.778517 1.807869 1.475634 -64.568005 0.000001 -0.000002 -0.000000 8.574307 2.179118 -75.148992 -0.207614 1.009264 -57.855056 -0.000003 0.000001 -0.000001 10.030112 13.637122 -84.750244 0.877123 0.062301 -64.595469 0.000003 0.000002 0.000001 0.000001 -0.000002 -0.000000 0.000001 -0.000002 -0.000000 0.000001 -0.000002 -0.000001 0.000000 0.000000 0.000001 0.000000 -0.000001 -0.000001 0.000000 0.000000 0.000001 0.000000 -0.000000 0.000000 7.302793 26.569084 -6.881545 -60.118191 -8.940506 34.394114 -76.312747 20.173445 58.156622 101.670269 -13.677699 -5.595355 -0.360539 0.058159 -0.542838 4.001292 -8.596766 -1.236495 0.000002 -0.000002 -0.000001 1.178584 -0.282247 0.826520 -0.148745 -0.225333 6.662540 -0.000001 -0.000001 -0.000001 3.352644 -1.937394 -1.697910 0.311849 -0.272012 27.480078 -0.000001 0.000000 0.000004 2.261801 -7.957276 1.280580 0.287414 -0.081024 25.276662 0.000002 0.000002 0.000001 1.961568 -6.393087 1.619550 0.531213 0.722528 33.415587 0.000003 -0.000000 -0.000001 0.000001 -0.000003 -0.000002 0.000001 -0.000003 -0.000003 0.000001 -0.000003 -0.000002 0.000000 0.000001 -0.000002 0.000000 0.000001 -0.000002 0.000000 0.000001 -0.000002 0.000001 0.000001 0.000000 -0.000002 0.000000 -0.000000 -0.000002 0.000000 -0.000000 -0.000002 0.000000 -0.000000 -0.000002 0.000000 -0.000000 -0.000002 0.000000 -0.000000 -0.000002 0.000000 -0.000000 -0.000002 0.000000 -0.000000 -0.000001 -0.000002 0.000001 0.000000 -0.000000 0.000002 
-2.519337 127.282486 319.765472 9.062663 -35.103033 20.695924 -0.000001 -0.000001 -0.000000 -100.919289 -16.094861 11.710303 109.266341 19.349487 7.468509 -13.177447 0.434373 4.523981 -0.000001 -0.000001 -0.000000 0.000000 -0.000000 -0.000001 -103.439062 -24.931362 -3.393780 85.206501 17.152459 10.362819 16.519256 4.552927 13.283093 0.000002 0.000001 -0.000002 -0.000001 0.000002 -0.000005 35.777453 4.348054 -26.812942 10.724711 4.198464 -5.583330 17.800936 -0.342642 0.829321 -2.550436 3.171313 -2.906975 -2.550422 3.171313 -2.906976 0.000002 0.000000 -0.000000 -2.550437 3.171319 -2.906977 -2.550396 3.171307 -2.906979 0.000003 0.000000 -0.000000 0.000002 0.000000 -0.000000 4.015666 -8.916286 -0.887799 -82.276739 -1.094246 -8.977286 -352.924836 -62.243623 -355.786057 -9.353966 7.465094 26.072470 17.551582 -5.699205 -12.932257 10.850550 26.127719 8.644750 -0.000001 -0.000002 -0.000005 13.980903 1.201583 -55.004367 0.370800 1.161720 -65.441880 -0.000001 0.000000 0.000000 7.504734 1.174491 -63.778510 1.807873 1.475639 -64.568012 -0.000003 -0.000002 -0.000001 8.574305 2.179114 -75.148986 -0.207617 1.009259 -57.855049 -0.000002 0.000001 -0.000000 10.030104 13.637116 -84.750251 0.877121 0.062295 -64.595469 0.000004 -0.000003 0.000000 -0.000001 -0.000002 -0.000000 -0.000001 -0.000002 -0.000000 -0.000001 -0.000002 -0.000001 -0.000000 -0.000001 -0.000000 -0.000000 -0.000002 -0.000000 -0.000000 -0.000001 -0.000000 -0.000001 -0.000002 -0.000001 6.746333 26.067560 -5.641314 -56.516472 -9.132689 35.083909 -76.680621 20.592551 59.887037 98.888995 -15.813116 -7.286352 -0.360433 0.058149 -0.542663 4.001296 -8.596754 -1.236505 0.000002 0.000001 -0.000000 1.177310 -0.282004 0.225304 -0.150306 -0.224051 6.061334 0.000002 0.000000 0.000000 3.352826 -1.937117 -2.299103 0.310513 -0.273204 26.878861 -0.000003 0.000000 0.000002 2.261805 -7.956977 0.679376 0.286934 -0.082358 24.675486 -0.000000 -0.000001 -0.000003 1.961558 -6.392814 1.018340 0.532389 0.723615 32.814408 0.000002 0.000005 0.000001 -0.000002 0.000001 -0.000000 -0.000002 -0.000002 0.000000 -0.000002 0.000001 0.000002 -0.000001 0.000001 0.000004 -0.000001 0.000001 0.000004 -0.000001 0.000001 0.000004 -0.000000 0.000001 0.000006 -0.000003 -0.000000 0.000001 -0.000003 -0.000000 0.000001 -0.000003 -0.000000 0.000001 -0.000003 -0.000000 0.000001 -0.000003 -0.000000 0.000001 -0.000003 -0.000000 0.000001 -0.000003 -0.000000 0.000001 -0.000000 0.000000 0.000000 -0.000001 -0.000001 -0.000000 
-2.506453 126.321732 325.001984 10.363490 -34.652890 21.023882 -0.000001 0.000004 0.000001 -97.938588 -15.458233 12.494334 105.671967 19.013882 8.038749 -14.656609 0.883759 2.376594 0.000001 0.000001 -0.000002 0.000000 0.000000 -0.000000 -97.928930 -20.448828 -1.988073 73.792612 16.151367 14.928009 15.432276 3.553161 14.757095 -0.000001 0.000001 0.000000 0.000004 0.000002 -0.000000 35.114095 4.671091 -26.225444 11.018716 4.045011 -5.488551 17.963816 -0.390539 0.823578 -2.320313 3.016080 -2.847543 -2.320292 3.016076 -2.847539 0.000003 0.000000 -0.000000 -2.320307 3.016077 -2.847540 -2.320277 3.016075 -2.847540 -0.000001 0.000000 0.000000 0.000003 0.000000 -0.000000 4.292264 -8.864044 -0.877264 -82.115300 -1.901183 -7.653570 -358.213014 -62.124464 -360.712180 -10.044898 6.053056 26.102956 17.551583 -5.699201 -12.932260 10.850550 26.127722 8.644748 0.000001 -0.000003 -0.000005 13.980904 1.201582 -55.004367 0.370805 1.161718 -65.441880 0.000000 -0.000002 -0.000001 7.504731 1.174493 -63.778510 1.807871 1.475637 -64.568005 -0.000001 -0.000001 0.000000 8.574304 2.179116 -75.148986 -0.207619 1.009262 -57.855056 -0.000001 -0.000001 0.000001 10.030107 13.637119 -84.750244 0.877129 0.062300 -64.595476 0.000002 -0.000002 -0.000002 -0.000000 0.000001 -0.000000 -0.000000 0.000001 -0.000000 -0.000001 0.000001 -0.000000 -0.000001 -0.000002 -0.000001 -0.000001 -0.000003 0.000000 -0.000001 -0.000002 -0.000001 -0.000001 -0.000002 -0.000002 6.167915 25.450304 -4.367980 -52.538276 -9.038838 35.874387 -76.979121 21.195505 61.458957 95.621494 -17.694153 -9.145831 -0.360329 0.058167 -0.542501 4.001299 -8.596758 -1.236497 0.000000 -0.000003 0.000001 1.177751 -0.281644 -0.050756 -0.149895 -0.223235 5.785276 -0.000002 0.000001 -0.000001 3.352999 -1.937003 -2.575176 0.309741 -0.272597 26.602825 -0.000002 0.000001 0.000000 2.262880 -7.956884 0.403473 0.287544 -0.082919 24.399398 0.000002 -0.000003 -0.000003 1.961577 -6.392699 0.742262 0.533006 0.724126 32.538260 0.000002 -0.000000 -0.000000 0.000002 0.000004 -0.000000 0.000003 0.000001 0.000001 0.000002 0.000004 0.000001 -0.000000 0.000002 0.000000 0.000000 0.000002 0.000003 -0.000000 0.000002 0.000000 0.000000 0.000002 0.000004 0.000001 0.000000 -0.000000 0.000001 0.000000 -0.000000 0.000001 0.000000 -0.000000 0.000001 0.000000 -0.000000 0.000001 0.000000 -0.000000 0.000001 0.000000 -0.000000 0.000001 0.000000 -0.000000 -0.000001 0.000000 0.000001 -0.000001 0.000004 0.000001 
